<svg width="61" height="56" viewBox="0 0 61 56" fill="none" xmlns="http://www.w3.org/2000/svg">
<path d="M56.0149 29.102V1.7797C56.0149 0.804954 55.2247 0.0147095 54.2499 0.0147095H6.9621C5.98736 0.0147095 5.19711 0.804954 5.19711 1.7797V31.2801C4.34568 31.4041 3.51331 31.7346 2.77696 32.2813C0.455644 33.9273 -0.0933855 37.611 1.85104 39.8828L9.80091 49.5204C14.7219 55.2798 19.9495 55.9855 27.7208 55.9855C34.3898 55.9855 37.3713 56.0149 43.1835 54.6906L48.8429 53.3369C49.7606 54.6184 51.2175 55.4486 52.8552 55.4486H55.6432C58.4133 55.4486 60.667 53.0744 60.667 50.1562V34.3785C60.6671 31.592 58.6119 29.3032 56.0149 29.102ZM48.0817 32.7327L45.73 31.5382C41.8634 29.5865 37.3929 29.5143 33.4652 31.3403C32.3936 31.7618 30.0564 33.1759 28.8441 33.1286H20.6837C17.9769 33.1286 15.7747 35.3307 15.7747 38.0376V39.3248C15.7595 39.3088 15.7436 39.2936 15.7287 39.2774L9.90128 32.952C9.54864 32.5692 9.15245 32.249 8.72721 31.992V14.481H23.1711V20.951C23.1711 21.9258 23.9613 22.716 24.9361 22.716H36.0732C37.048 22.716 37.8382 21.9258 37.8382 20.951V14.481H52.4851V29.1019C50.4229 29.2612 48.7033 30.7365 48.0817 32.7327ZM26.7009 14.481H34.3081V19.186H26.7009V14.481ZM52.485 10.9511H37.8382V3.54469H52.4851V10.9511H52.485ZM34.3083 3.54469V10.9512H26.701V3.54469H34.3083ZM23.1709 3.54469V10.9512H8.72709V3.54469H23.1709ZM42.3643 51.2568C36.9952 52.4866 33.7616 52.4368 27.7842 52.4368C20.4889 52.4368 16.9639 52.3189 12.5242 47.2741L4.57431 37.6364C3.1915 35.8358 5.69613 33.7101 7.3051 35.3436L13.1325 41.6691C14.6726 43.2941 16.6107 44.1885 18.9994 44.2411H35.1559C36.1307 44.2411 36.9209 43.4509 36.9209 42.4761C36.9209 41.5014 36.1307 40.7111 35.1559 40.7111H19.3046V38.0374C19.3046 37.2771 19.9231 36.6584 20.6836 36.6584H28.844C30.6824 36.79 33.3359 35.255 34.9533 34.5411C37.895 33.1733 41.2433 33.2275 44.1354 34.6872L47.8317 36.5647V49.949L42.3643 51.2568ZM57.1371 50.1561C57.1371 51.1279 56.467 51.9185 55.6433 51.9185H52.8554C52.0317 51.9185 51.3617 51.1279 51.3617 50.1561V34.3785C51.3617 33.4067 52.0318 32.616 52.8554 32.616H55.6433C56.467 32.616 57.1371 33.4065 57.1371 34.3785V50.1561Z" fill="#242424"/>
</svg>
